<svg width="212" height="57" viewBox="0 0 212 57" fill="none" xmlns="http://www.w3.org/2000/svg">
<path d="M0.246553 23.7397C0.246553 19.9057 0.129147 16.8195 0 13.9708H4.76668L5.07194 19.0986H5.18934C7.32613 15.4545 10.8718 13.3535 15.7089 13.3535C22.9294 13.3535 28.3066 19.4784 28.3066 28.4996C28.3066 39.2538 21.7671 44.5715 14.7932 44.5715C10.8835 44.5715 7.45528 42.8385 5.68245 39.871H5.56504V56.1329H0.246553V23.7397ZM5.56504 31.7163C5.56504 32.5235 5.62375 33.2594 5.81159 33.936C6.78606 37.7107 10.0265 40.2983 13.8891 40.2983C19.5716 40.2983 22.8824 35.5978 22.8824 28.737C22.8824 22.802 19.7594 17.6742 14.077 17.6742C10.4139 17.6742 6.92695 20.2737 5.94074 24.357C5.75289 25.0336 5.57678 25.8407 5.57678 26.5173V31.7163H5.56504Z" fill="#1A1A1A"/>
<path d="M35.0356 23.3125C35.0356 19.7871 34.9769 16.7603 34.7891 13.9827H39.497L39.7436 19.9177H39.9314C41.2816 15.8938 44.5807 13.3655 48.1851 13.3655C48.7369 13.3655 49.1596 13.4248 49.6527 13.4842V18.612C49.1009 18.4933 48.549 18.4933 47.8211 18.4933C44.0289 18.4933 41.3403 21.3421 40.6007 25.4135C40.4833 26.1494 40.4128 27.0871 40.4128 27.9537V43.9069H35.0356V23.3244V23.3125Z" fill="#1A1A1A"/>
<path d="M95.2524 23.7397C95.2524 19.9057 95.135 16.8195 95.0059 13.9708H99.7725L100.078 19.0986H100.195C102.332 15.4545 105.878 13.3535 110.715 13.3535C117.935 13.3535 123.312 19.4784 123.312 28.4996C123.312 39.2538 116.773 44.5715 109.799 44.5715C105.889 44.5715 102.461 42.8385 100.688 39.871H100.571V56.1329H95.2524V23.7397ZM100.571 31.7163C100.571 32.5235 100.63 33.2594 100.817 33.936C101.792 37.7107 105.032 40.2983 108.895 40.2983C114.577 40.2983 117.888 35.5978 117.888 28.737C117.888 22.802 114.765 17.6742 109.083 17.6742C105.42 17.6742 101.933 20.2737 100.947 24.357C100.759 25.0336 100.583 25.8407 100.583 26.5173V31.7163H100.571Z" fill="#1A1A1A"/>
<path d="M134.043 27.6926H134.161C134.888 26.6362 135.875 25.3424 136.732 24.2978L145.478 13.9709H151.901L140.524 26.2801L153.544 43.8951H146.946L136.79 29.5562L134.043 32.6424V43.8951H128.725V0H134.043V27.6926Z" fill="#1A1A1A"/>
<path d="M160.388 29.924C160.506 37.2833 165.096 40.3102 170.544 40.3102C174.395 40.3102 176.778 39.6336 178.739 38.7671L179.714 42.6604C177.823 43.5269 174.512 44.5715 169.804 44.5715C160.694 44.5715 155.246 38.4466 155.246 29.4254C155.246 20.4043 160.506 13.3535 169.123 13.3535C178.845 13.3535 181.357 21.888 181.357 27.3838C181.357 28.4996 181.298 29.2949 181.169 29.924H160.377H160.388ZM176.168 26.0306C176.227 22.6358 174.759 17.2469 168.713 17.2469C163.206 17.2469 160.882 22.256 160.459 26.0306H176.18H176.168Z" fill="#1A1A1A"/>
<path d="M191.031 29.924C191.148 37.2833 195.739 40.3102 201.187 40.3102C205.038 40.3102 207.421 39.6336 209.382 38.7671L210.356 42.6604C208.466 43.5269 205.155 44.5715 200.447 44.5715C191.336 44.5715 185.889 38.4466 185.889 29.4254C185.889 20.4043 191.148 13.3535 199.766 13.3535C209.487 13.3535 212 21.888 212 27.3838C212 28.4996 211.941 29.2949 211.812 29.924H191.019H191.031ZM206.81 26.0306C206.869 22.6358 205.402 17.2469 199.355 17.2469C193.849 17.2469 191.524 22.256 191.102 26.0306H206.822H206.81Z" fill="#1A1A1A"/>
<path d="M63.0345 32.7779C63.9921 32.7013 64.7566 33.3258 65.6176 33.6561C68.949 34.9332 73.3345 34.9211 76.6579 33.6319C77.3218 33.3741 78.2351 32.7376 78.9151 32.7577C80.7658 32.8141 81.6953 35.3078 80.1744 36.5003C77.0924 38.9093 70.2164 39.0987 66.551 38.2849C65.4526 38.0392 62.5356 37.1448 61.7511 36.4197C60.4193 35.1869 61.2441 32.9229 63.0345 32.7779Z" fill="#BF8B50"/>
<path d="M56.7296 41.4494C56.7722 42.28 57.4656 42.9404 58.3149 42.9404H83.7135C84.5902 42.9404 85.3009 42.2366 85.3009 41.3685V24.6685C85.3009 24.2006 85.0906 23.7589 84.7302 23.4613L84.656 23.4037L72.9419 14.8429C71.8218 14.0243 70.2938 14.0239 69.1731 14.8418L57.3732 23.4538C56.9672 23.7501 56.7275 24.2197 56.7275 24.7191V41.3685L56.7296 41.4494ZM89.4679 41.3685C89.4679 44.5156 86.8916 47.0668 83.7135 47.0668H58.3149C55.1369 47.0668 52.5605 44.5156 52.5605 41.3685V24.7191C52.5605 22.9087 53.4293 21.2061 54.901 20.132L66.701 11.52L66.823 11.4327C69.3616 9.6577 72.7567 9.65876 75.2941 11.4353L75.4162 11.5227L87.1304 20.0834L87.2664 20.1859C88.6537 21.2641 89.4679 22.9158 89.4679 24.6685V41.3685Z" fill="#BF8B50"/>
</svg>
