<svg width="24" height="24" viewBox="0 0 24 24" fill="none" xmlns="http://www.w3.org/2000/svg">
<path d="M21.0302 10.6127L17.1998 8.40039L13.2783 12.3218L17.1995 16.2429L21.0432 14.0232C21.6426 13.6591 22.0003 13.0229 22.0003 12.3218C22.0003 11.6206 21.6423 10.9845 21.0302 10.6127Z" fill="#FFCE00"/>
<path d="M13.2784 12.3224L2.59713 1.56445C2.22562 1.93595 2 2.44005 2 2.9973V21.6147C2 22.1719 2.22562 22.676 2.59713 23.0478L13.2784 12.3224Z" fill="url(#paint0_linear_3_1969)"/>
<path d="M13.2789 12.3223L17.2004 8.40094L17.2066 8.39472L11.9523 5.36957L5.02602 1.29891C4.40232 0.914126 3.64602 0.900838 3.00903 1.25905C2.86314 1.35178 2.73026 1.4448 2.59766 1.56411L13.2789 12.3223Z" fill="#00F076"/>
<path d="M2.59766 23.0474C2.73026 23.1667 2.86314 23.2597 3.00903 23.3525C3.32738 23.5249 3.65931 23.6179 3.99095 23.6179C4.34917 23.6179 4.6941 23.5119 5.01273 23.3262L11.9521 19.275L17.2063 16.2499L17.2001 16.2436L13.2789 12.3223L2.59766 23.0474Z" fill="#F63448"/>
<defs>
<linearGradient id="paint0_linear_3_1969" x1="-2.77361" y1="17.6769" x2="7.96792" y2="6.93485" gradientUnits="userSpaceOnUse">
<stop stop-color="#00E2FF"/>
<stop offset="1" stop-color="#00C5FF"/>
</linearGradient>
</defs>
</svg>
