<svg width="32" height="32" viewBox="0 0 32 32" fill="none" xmlns="http://www.w3.org/2000/svg">
<path d="M23 2H9C5.136 2 2 5.136 2 9V23C2 26.864 5.136 30 9 30H23C26.864 30 30 26.864 30 23V9C30 5.136 26.864 2 23 2ZM16 23C12.136 23 9 19.864 9 16C9 12.136 12.136 9 16 9C19.864 9 23 12.136 23 16C23 19.864 19.864 23 16 23ZM23.49 9.868C22.72 9.868 22.09 9.238 22.09 8.468C22.09 7.698 22.72 7.068 23.49 7.068C24.26 7.068 24.89 7.698 24.89 8.468C24.89 9.238 24.26 9.868 23.49 9.868Z" fill="#2F2719"/>
<path d="M15.9997 20.6673C18.577 20.6673 20.6663 18.578 20.6663 16.0007C20.6663 13.4233 18.577 11.334 15.9997 11.334C13.4223 11.334 11.333 13.4233 11.333 16.0007C11.333 18.578 13.4223 20.6673 15.9997 20.6673Z" fill="#2F2719"/>
</svg>
