<svg width="32" height="32" viewBox="0 0 32 32" fill="none" xmlns="http://www.w3.org/2000/svg">
<path d="M22.9611 2.01172H9.01665C5.15305 2.01172 2 5.16477 2 9.02837V22.9951C2 26.8365 5.15305 29.9895 9.01665 29.9895H22.9833C26.8469 29.9895 30 26.8365 30 22.9729V9.02837C29.9778 5.16477 26.8247 2.01172 22.9611 2.01172ZM11.3259 24.6604H7.3291V13.114H11.3259V24.6604ZM9.30531 11.3377C8.17288 11.3377 7.26249 10.4273 7.26249 9.29483C7.26249 8.16239 8.17288 7.252 9.30531 7.252C10.4377 7.252 11.3481 8.16239 11.3481 9.29483C11.3259 10.4273 10.4155 11.3377 9.30531 11.3377ZM24.6709 24.6604H24.6487H21.318V19.0648C21.318 17.7104 21.1404 15.9784 19.2974 15.9784C17.41 15.9784 17.0991 17.4439 17.0991 18.976V24.6604H13.7684V13.114H16.8771V14.6683H16.9659C17.4544 13.7802 18.5868 13.0918 20.3632 13.0918C24.027 13.0918 24.6709 15.2013 24.6709 18.3321V24.6604Z" fill="#2F2719"/>
</svg>
