<svg width="32" height="32" viewBox="0 0 32 32" fill="none" xmlns="http://www.w3.org/2000/svg">
<path d="M13.9404 12.8516V18.6928L19.3246 15.7976L13.9404 12.8516Z" fill="#2F2719"/>
<path d="M22.9778 2H9C5.15556 2 2 5.15556 2 9.02222V23C2 26.8444 5.15556 30 9 30H22.9778C26.8444 30 30 26.8444 30 22.9778V9.02222C30 5.15556 26.8444 2 22.9778 2ZM24.6667 16.6889C24.6667 18.1556 24.5333 19.6444 24.5333 19.6444C24.5333 19.6444 24.3778 20.8889 23.8667 21.4444C23.2 22.1778 22.4667 22.1778 22.1333 22.2222C19.6889 22.4 16.0222 22.4222 16.0222 22.4222C16.0222 22.4222 11.4667 22.3556 10.0667 22.2222C9.68889 22.1556 8.8 22.1778 8.13333 21.4444C7.6 20.8889 7.46667 19.6444 7.46667 19.6444C7.46667 19.6444 7.33333 18.1556 7.33333 16.6889V15.3111C7.33333 13.8444 7.46667 12.3556 7.46667 12.3556C7.46667 12.3556 7.62222 11.1111 8.13333 10.5556C8.8 9.82222 9.53333 9.8 9.86667 9.75556C12.3333 9.57778 16 9.55556 16 9.55556C16 9.55556 19.6667 9.57778 22.1111 9.75556C22.4444 9.8 23.2 9.82222 23.8667 10.5333C24.4 11.0889 24.5333 12.3556 24.5333 12.3556C24.5333 12.3556 24.6667 13.8444 24.6667 15.3111V16.6889Z" fill="#2F2719"/>
</svg>
